<svg width="63" height="25" viewBox="0 0 63 25" fill="none" xmlns="http://www.w3.org/2000/svg">
    <path d="M1.76 20C1.65333 20 1.568 19.968 1.504 19.904C1.44 19.8293 1.408 19.7387 1.408 19.632V9.184C1.408 9.06667 1.44 8.976 1.504 8.912C1.568 8.83733 1.65333 8.8 1.76 8.8H8.336C8.45333 8.8 8.544 8.83733 8.608 8.912C8.68267 8.976 8.72 9.06667 8.72 9.184V9.76C8.72 9.86667 8.68267 9.952 8.608 10.016C8.544 10.08 8.45333 10.112 8.336 10.112H2.88V13.68H7.984C8.10133 13.68 8.192 13.7173 8.256 13.792C8.33067 13.856 8.368 13.9467 8.368 14.064V14.608C8.368 14.7147 8.33067 14.8053 8.256 14.88C8.192 14.944 8.10133 14.976 7.984 14.976H2.88V18.672H8.464C8.58133 18.672 8.672 18.7093 8.736 18.784C8.81067 18.848 8.848 18.9387 8.848 19.056V19.632C8.848 19.7387 8.81067 19.8293 8.736 19.904C8.66133 19.968 8.57067 20 8.464 20H1.76ZM11.2555 20C11.1488 20 11.0582 19.968 10.9835 19.904C10.9195 19.8293 10.8875 19.7387 10.8875 19.632V12.048C10.8875 11.9413 10.9195 11.856 10.9835 11.792C11.0582 11.7173 11.1488 11.68 11.2555 11.68H11.9435C12.0608 11.68 12.1515 11.712 12.2155 11.776C12.2795 11.84 12.3115 11.9307 12.3115 12.048V12.752C12.6315 12.3573 12.9995 12.0533 13.4155 11.84C13.8422 11.6267 14.3702 11.52 14.9995 11.52C16.0235 11.52 16.8182 11.8507 17.3835 12.512C17.9488 13.1627 18.2315 14.0267 18.2315 15.104V19.632C18.2315 19.7387 18.1942 19.8293 18.1195 19.904C18.0555 19.968 17.9702 20 17.8635 20H17.1275C17.0208 20 16.9302 19.968 16.8555 19.904C16.7915 19.8293 16.7595 19.7387 16.7595 19.632V15.2C16.7595 14.432 16.5728 13.8347 16.1995 13.408C15.8262 12.9813 15.2928 12.768 14.5995 12.768C13.9168 12.768 13.3728 12.9867 12.9675 13.424C12.5622 13.8507 12.3595 14.4427 12.3595 15.2V19.632C12.3595 19.7387 12.3222 19.8293 12.2475 19.904C12.1835 19.968 12.0982 20 11.9915 20H11.2555Z" fill="#4F4F4F"/>
    <path d="M57 18L56.6204 18.3254C56.7178 18.4391 56.861 18.5031 57.0107 18.4999C57.1603 18.4967 57.3007 18.4266 57.3932 18.3089L57 18ZM62.8932 11.3089C63.0638 11.0918 63.026 10.7774 62.8089 10.6068C62.5918 10.4362 62.2774 10.474 62.1068 10.6911L62.8932 11.3089ZM50.6204 11.3254L56.6204 18.3254L57.3796 17.6746L51.3796 10.6746L50.6204 11.3254ZM57.3932 18.3089L62.8932 11.3089L62.1068 10.6911L56.6068 17.6911L57.3932 18.3089Z" fill="#4F4F4F"/>
    <g clip-path="url(#clip0_2_916)">
        <path d="M26 9V21H46V9H26Z" fill="#012169"/>
        <path d="M26 9L46 21L26 9ZM46 9L26 21L46 9Z" fill="black"/>
        <path fill-rule="evenodd" clip-rule="evenodd" d="M33.7639 15.0001L25.5527 10.0734L26.4472 7.92676L35.9999 13.6584L45.5527 7.92676L46.4472 10.0734L38.236 15.0001L46.4472 19.9268L45.5527 22.0734L35.9999 16.3417L26.4472 22.0734L25.5527 19.9268L33.7639 15.0001Z" fill="white"/>
        <path d="M26 9L46 21L26 9ZM46 9L26 21L46 9Z" fill="black"/>
        <path fill-rule="evenodd" clip-rule="evenodd" d="M34.5092 15L25.7018 9.71551L26.2981 8.28442L35.9999 14.1055L45.7018 8.28442L46.2981 9.71551L37.4906 15L46.2981 20.2844L45.7018 21.7155L35.9999 15.8944L26.2981 21.7155L25.7018 20.2844L34.5092 15Z" fill="#C8102E"/>
        <path d="M36 9V21V9ZM26 15H46H26Z" fill="black"/>
        <path fill-rule="evenodd" clip-rule="evenodd" d="M37.6667 17V21H34.3333V17H26V13H34.3333V9H37.6667V13H46V17H37.6667Z" fill="white"/>
        <path d="M36 9V21V9ZM26 15H46H26Z" fill="black"/>
        <path fill-rule="evenodd" clip-rule="evenodd" d="M37 16.2V21H35V16.2H26V13.8H35V9H37V13.8H46V16.2H37Z" fill="#C8102E"/>
    </g>
    <defs>
        <clipPath id="clip0_2_916">
            <rect width="20" height="12" fill="white" transform="translate(26 9)"/>
        </clipPath>
    </defs>
</svg>
